<svg xmlns="http://www.w3.org/2000/svg" viewBox="0 0 96 96" role="img" aria-label="Нет боли">
  <defs>
    <linearGradient id="logoGold" x1="18" x2="78" y1="16" y2="82" gradientUnits="userSpaceOnUse">
      <stop stop-color="#F0B35E"/>
      <stop offset="1" stop-color="#B76F2B"/>
    </linearGradient>
    <linearGradient id="logoGreen" x1="29" x2="72" y1="76" y2="22" gradientUnits="userSpaceOnUse">
      <stop stop-color="#6D9A78"/>
      <stop offset="1" stop-color="#B8D3A2"/>
    </linearGradient>
  </defs>
  <rect width="96" height="96" rx="28" fill="#15110D"/>
  <circle cx="48" cy="48" r="35" fill="none" stroke="url(#logoGold)" stroke-width="3"/>
  <path d="M26 55c9-2 15-8 18-19 2-7 9-11 17-9 6 2 10 7 10 14 0 14-11 27-28 30" fill="none" stroke="url(#logoGreen)" stroke-width="6" stroke-linecap="round"/>
  <path d="M32 43c8 4 18 3 28-3" fill="none" stroke="#F3EADC" stroke-width="5" stroke-linecap="round" opacity=".9"/>
  <path d="M40 28c4 14 13 25 27 34" fill="none" stroke="url(#logoGold)" stroke-width="5" stroke-linecap="round"/>
  <circle cx="61" cy="37" r="4" fill="#F3EADC"/>
  <circle cx="35" cy="58" r="3" fill="#D89449"/>
</svg>
